<?xml version="1.0" ?><svg data-name="Layer 1" id="Layer_1" viewBox="0 0 64 64" xmlns="http://www.w3.org/2000/svg"><title/><line style="fill:none;stroke:#000;stroke-linecap:round;stroke-linejoin:round;stroke-width:2px" x1="10" x2="45" y1="54" y2="54"/><path d="M32.48,49H22.591A12.591,12.591,0,0,1,10,36.409V25.4A1.394,1.394,0,0,1,11.4,24h32.21A1.394,1.394,0,0,1,45,25.4V36.48a12.6,12.6,0,0,1-.065,1.281A12.507,12.507,0,0,1,32.48,49Z" style="fill:none;stroke:#000;stroke-linecap:round;stroke-linejoin:round;stroke-width:2px"/><path d="M17,20V18.038a2.437,2.437,0,0,1,.714-1.723l2.572-2.572A2.441,2.441,0,0,0,21,12.019V10" style="fill:none;stroke:#000;stroke-linecap:round;stroke-linejoin:round;stroke-width:2px"/><path d="M45,28l5.9.014A3.355,3.355,0,0,1,54,31.567v2.881A3.353,3.353,0,0,1,50.891,38H45" style="fill:none;stroke:#000;stroke-linecap:round;stroke-linejoin:round;stroke-width:2px"/><path d="M24,20V18.038a2.437,2.437,0,0,1,.714-1.723l2.572-2.572A2.441,2.441,0,0,0,28,12.019V10" style="fill:none;stroke:#000;stroke-linecap:round;stroke-linejoin:round;stroke-width:2px"/><path d="M31,20V18.038a2.437,2.437,0,0,1,.714-1.723l2.572-2.572A2.441,2.441,0,0,0,35,12.019V10" style="fill:none;stroke:#000;stroke-linecap:round;stroke-linejoin:round;stroke-width:2px"/><path d="M38,20V18.038a2.437,2.437,0,0,1,.714-1.723l2.572-2.572A2.441,2.441,0,0,0,42,12.019V10" style="fill:none;stroke:#000;stroke-linecap:round;stroke-linejoin:round;stroke-width:2px"/></svg>